<svg xmlns="http://www.w3.org/2000/svg" viewBox="0 0 500 500"><g id="freepik--Leaves--inject-143"><path d="M329.2,76.68a5.74,5.74,0,0,1-1.05,1.43,1.24,1.24,0,0,1-1.69.07,2.91,2.91,0,0,1-.81-1.83c-.3-1.47-.11-3-.43-4.47A3.24,3.24,0,0,0,324,70c-.92-.72-1.81-.08-2.26.82-1.71,3.36-5.33-4.67-6.84-1.62s3.95,7,1,7.89-1.23,3.94.69,4.09,6.38,1.79,3.27,3.93.33,4.78,3.89,4.55c5.68-.36,7.54-1.23,7.54-1.23a17.89,17.89,0,0,0,2.41-7.65,6.79,6.79,0,0,0-1.06-4.21c-.59-.87-1.62-1.65-2.62-.88A3.76,3.76,0,0,0,329.2,76.68Z" style="fill:#407BFF"></path><path d="M329.2,76.68a5.74,5.74,0,0,1-1.05,1.43,1.24,1.24,0,0,1-1.69.07,2.91,2.91,0,0,1-.81-1.83c-.3-1.47-.11-3-.43-4.47A3.24,3.24,0,0,0,324,70c-.92-.72-1.81-.08-2.26.82-1.71,3.36-5.33-4.67-6.84-1.62s3.95,7,1,7.89-1.23,3.94.69,4.09,6.38,1.79,3.27,3.93.33,4.78,3.89,4.55c5.68-.36,7.54-1.23,7.54-1.23a17.89,17.89,0,0,0,2.41-7.65,6.79,6.79,0,0,0-1.06-4.21c-.59-.87-1.62-1.65-2.62-.88A3.76,3.76,0,0,0,329.2,76.68Z" style="opacity:0.30000000000000004"></path><path d="M65.52,204.47s-9.27-2.26-9.16-5.76,6.9.94,5.09-2.11-3.17-6.18-1.51-7.8,5,.71,6.14,5,2.39-.43,5.46.9C74.18,195.89,72.64,203,65.52,204.47Z" style="fill:#407BFF"></path><path d="M65.52,204.47s-9.27-2.26-9.16-5.76,6.9.94,5.09-2.11-3.17-6.18-1.51-7.8,5,.71,6.14,5,2.39-.43,5.46.9C74.18,195.89,72.64,203,65.52,204.47Z" style="opacity:0.30000000000000004"></path><path d="M407.28,252.61s-4.32-8.5-1.59-10.7,3.78,5.85,4.91,2.49,2.63-6.42,4.94-6.22,2.7,4.24.17,7.95,1.87,1.53,2.87,4.73C419.43,253.6,413,257.09,407.28,252.61Z" style="fill:#407BFF"></path><path d="M407.28,252.61s-4.32-8.5-1.59-10.7,3.78,5.85,4.91,2.49,2.63-6.42,4.94-6.22,2.7,4.24.17,7.95,1.87,1.53,2.87,4.73C419.43,253.6,413,257.09,407.28,252.61Z" style="opacity:0.30000000000000004"></path><path d="M183.28,94.17s3.85-6.81,14.42-2.69C197.7,91.48,191.75,99.53,183.28,94.17Z" style="fill:#407BFF"></path><path d="M183.28,94.17s3.85-6.81,14.42-2.69C197.7,91.48,191.75,99.53,183.28,94.17Z" style="opacity:0.30000000000000004"></path><path d="M107.06,171.58s-7.31,2.78-12.82-7.13C94.24,164.45,104,162.05,107.06,171.58Z" style="fill:#407BFF"></path><path d="M107.06,171.58s-7.31,2.78-12.82-7.13C94.24,164.45,104,162.05,107.06,171.58Z" style="opacity:0.30000000000000004"></path><path d="M354.92,163.85s-6.14,4.85-14.37-2.95C340.55,160.9,349.1,155.69,354.92,163.85Z" style="fill:#407BFF"></path><path d="M354.92,163.85s-6.14,4.85-14.37-2.95C340.55,160.9,349.1,155.69,354.92,163.85Z" style="opacity:0.30000000000000004"></path><path d="M357,124.19c-1.57-5.88,5.53-8.83,14.81-6C369.55,124.7,359.69,134.35,357,124.19Z" style="fill:#407BFF"></path><path d="M357,124.19c-1.57-5.88,5.53-8.83,14.81-6C369.55,124.7,359.69,134.35,357,124.19Z" style="opacity:0.30000000000000004"></path><path d="M138.86,210.43s7.08,3.35,3.75,14.18C142.61,224.61,134.14,219.27,138.86,210.43Z" style="fill:#407BFF"></path><path d="M138.86,210.43s7.08,3.35,3.75,14.18C142.61,224.61,134.14,219.27,138.86,210.43Z" style="fill:#407BFF;opacity:0.30000000000000004"></path><g style="opacity:0.30000000000000004"><path d="M138.86,210.43s7.08,3.35,3.75,14.18C142.61,224.61,134.14,219.27,138.86,210.43Z"></path><path d="M138.86,210.43s7.08,3.35,3.75,14.18C142.61,224.61,134.14,219.27,138.86,210.43Z" style="opacity:0.30000000000000004"></path></g><path d="M100.72,128.47a5.78,5.78,0,0,1-1.07-1.41,1.23,1.23,0,0,1,.41-1.64,2.87,2.87,0,0,1,2-.27c1.5.13,2.91.75,4.41.85a3.22,3.22,0,0,0,2.2-.61c.94-.68.58-1.71-.16-2.4-2.73-2.59,6-3.79,3.5-6.1s-7.85,1.8-7.86-1.24-3.43-2.3-4.12-.5-3.52,5.61-4.7,2-4.67-1-5.46,2.44c-1.26,5.55-.95,7.59-.95,7.59a17.88,17.88,0,0,0,6.65,4.48,6.93,6.93,0,0,0,4.34.17c1-.32,2-1.09,1.59-2.26A3.7,3.7,0,0,0,100.72,128.47Z" style="fill:#407BFF"></path><path d="M100.72,128.47a5.78,5.78,0,0,1-1.07-1.41,1.23,1.23,0,0,1,.41-1.64,2.87,2.87,0,0,1,2-.27c1.5.13,2.91.75,4.41.85a3.22,3.22,0,0,0,2.2-.61c.94-.68.58-1.71-.16-2.4-2.73-2.59,6-3.79,3.5-6.1s-7.85,1.8-7.86-1.24-3.43-2.3-4.12-.5-3.52,5.61-4.7,2-4.67-1-5.46,2.44c-1.26,5.55-.95,7.59-.95,7.59a17.88,17.88,0,0,0,6.65,4.48,6.93,6.93,0,0,0,4.34.17c1-.32,2-1.09,1.59-2.26A3.7,3.7,0,0,0,100.72,128.47Z" style="fill:#fff;opacity:0.6000000000000001"></path><path d="M96.51,273.35s7.65-5.69,6.18-8.87-6,3.55-5.5,0,.51-6.93-1.65-7.77-4.3,2.59-3.69,7-2.36.53-4.68,3C85.19,268.82,89.39,274.8,96.51,273.35Z" style="fill:#407BFF"></path><path d="M96.51,273.35s7.65-5.69,6.18-8.87-6,3.55-5.5,0,.51-6.93-1.65-7.77-4.3,2.59-3.69,7-2.36.53-4.68,3C85.19,268.82,89.39,274.8,96.51,273.35Z" style="fill:#fff;opacity:0.6000000000000001"></path><path d="M316.47,130.45s-9.52-.57-10-4,6.95-.31,4.62-3-4.22-5.51-2.88-7.4,5-.19,6.95,3.86,2.27-.84,5.54-.09C323.45,120.45,323.22,127.76,316.47,130.45Z" style="fill:#407BFF"></path><path d="M316.47,130.45s-9.52-.57-10-4,6.95-.31,4.62-3-4.22-5.51-2.88-7.4,5-.19,6.95,3.86,2.27-.84,5.54-.09C323.45,120.45,323.22,127.76,316.47,130.45Z" style="fill:#fff;opacity:0.6000000000000001"></path><path d="M360.07,255.61A5.42,5.42,0,0,1,359,254.2a1.23,1.23,0,0,1,.41-1.64,2.87,2.87,0,0,1,2-.26c1.5.13,2.91.74,4.42.85a3.19,3.19,0,0,0,2.19-.61c.94-.68.58-1.71-.15-2.41-2.74-2.59,6-3.78,3.49-6.09s-7.85,1.8-7.86-1.25-3.43-2.29-4.12-.49-3.52,5.61-4.69,2-4.68-1-5.47,2.44c-1.26,5.55-.95,7.59-.95,7.59a17.79,17.79,0,0,0,6.65,4.47,6.79,6.79,0,0,0,4.34.17c1-.31,2-1.08,1.59-2.25A3.75,3.75,0,0,0,360.07,255.61Z" style="fill:#407BFF"></path><path d="M360.07,255.61A5.42,5.42,0,0,1,359,254.2a1.23,1.23,0,0,1,.41-1.64,2.87,2.87,0,0,1,2-.26c1.5.13,2.91.74,4.42.85a3.19,3.19,0,0,0,2.19-.61c.94-.68.58-1.71-.15-2.41-2.74-2.59,6-3.78,3.49-6.09s-7.85,1.8-7.86-1.25-3.43-2.29-4.12-.49-3.52,5.61-4.69,2-4.68-1-5.47,2.44c-1.26,5.55-.95,7.59-.95,7.59a17.79,17.79,0,0,0,6.65,4.47,6.79,6.79,0,0,0,4.34.17c1-.31,2-1.08,1.59-2.25A3.75,3.75,0,0,0,360.07,255.61Z" style="fill:#fff;opacity:0.6000000000000001"></path><path d="M72.75,88.39s-7.58,1.93-11.93-8.54C60.82,79.85,70.75,78.56,72.75,88.39Z" style="fill:#407BFF"></path><path d="M72.75,88.39s-7.58,1.93-11.93-8.54C60.82,79.85,70.75,78.56,72.75,88.39Z" style="fill:#fff;opacity:0.6000000000000001"></path><path d="M407.94,203.28s-6.65,4.12-13.94-4.56C394,198.72,403.09,194.51,407.94,203.28Z" style="fill:#407BFF"></path><path d="M407.94,203.28s-6.65,4.12-13.94-4.56C394,198.72,403.09,194.51,407.94,203.28Z" style="fill:#fff;opacity:0.6000000000000001"></path><path d="M410,145.12a5.63,5.63,0,0,1-.61-1.66,1.25,1.25,0,0,1,.88-1.45,2.93,2.93,0,0,1,2,.34c1.39.58,2.55,1.59,4,2.14a3.25,3.25,0,0,0,2.28.07c1.1-.36,1.07-1.46.57-2.34-1.83-3.29,6.85-1.82,5.16-4.77s-8-.63-7.12-3.54-2.59-3.21-3.79-1.71-5,4.31-5.08.53-4.15-2.38-5.95.69c-2.86,4.92-3.18,7-3.18,7a17.92,17.92,0,0,0,5,6.26,6.85,6.85,0,0,0,4.09,1.46c1.05,0,2.27-.43,2.19-1.68A4,4,0,0,0,410,145.12Z" style="fill:#407BFF"></path><path d="M410,145.12a5.63,5.63,0,0,1-.61-1.66,1.25,1.25,0,0,1,.88-1.45,2.93,2.93,0,0,1,2,.34c1.39.58,2.55,1.59,4,2.14a3.25,3.25,0,0,0,2.28.07c1.1-.36,1.07-1.46.57-2.34-1.83-3.29,6.85-1.82,5.16-4.77s-8-.63-7.12-3.54-2.59-3.21-3.79-1.71-5,4.31-5.08.53-4.15-2.38-5.95.69c-2.86,4.92-3.18,7-3.18,7a17.92,17.92,0,0,0,5,6.26,6.85,6.85,0,0,0,4.09,1.46c1.05,0,2.27-.43,2.19-1.68A4,4,0,0,0,410,145.12Z" style="opacity:0.6000000000000001"></path><path d="M174.12,149.23s9.27-2.26,9.15-5.76-6.89.94-5.08-2.11,3.16-6.18,1.51-7.8-5,.72-6.14,5.05-2.39-.42-5.47.91C165.46,140.65,167,147.8,174.12,149.23Z" style="fill:#407BFF"></path><path d="M174.12,149.23s9.27-2.26,9.15-5.76-6.89.94-5.08-2.11,3.16-6.18,1.51-7.8-5,.72-6.14,5.05-2.39-.42-5.47.91C165.46,140.65,167,147.8,174.12,149.23Z" style="opacity:0.6000000000000001"></path><path d="M134.91,88.63S134.82,80.8,146,79C146,79,144.93,89,134.91,88.63Z" style="fill:#407BFF"></path><path d="M134.91,88.63S134.82,80.8,146,79C146,79,144.93,89,134.91,88.63Z" style="opacity:0.6000000000000001"></path><path d="M318.52,219.09s-.1-7.83,11.1-9.59C329.62,209.5,328.54,219.45,318.52,219.09Z" style="fill:#407BFF"></path><path d="M318.52,219.09s-.1-7.83,11.1-9.59C329.62,209.5,328.54,219.45,318.52,219.09Z" style="opacity:0.6000000000000001"></path><path d="M415.64,98.33s-4.92,6.09-14.67.31C401,98.64,408.15,91.66,415.64,98.33Z" style="fill:#407BFF"></path><path d="M415.64,98.33s-4.92,6.09-14.67.31C401,98.64,408.15,91.66,415.64,98.33Z" style="opacity:0.6000000000000001"></path><path d="M187.25,197.41c-5.63,2.32-9.46-4.34-7.89-13.91C186.14,184.89,197,193.42,187.25,197.41Z" style="fill:#407BFF"></path><path d="M187.25,197.41c-5.63,2.32-9.46-4.34-7.89-13.91C186.14,184.89,197,193.42,187.25,197.41Z" style="opacity:0.6000000000000001"></path></g></svg>