<svg xmlns="http://www.w3.org/2000/svg" viewBox="0 0 500 500"><g id="freepik--Shadow--inject-72"><path d="M382.888,459.788c0,6.293-56.222,11.394-125.576,11.394s-125.576-5.101-125.576-11.394,56.222-11.394,125.576-11.394,125.576,5.101,125.576,11.394Z" style="fill:#f5f5f5;"></path></g><g id="freepik--Graduation_hat_2--inject-72"><g><g><path d="M318.278,119.119l-22.572,35.924s8.923,13.722,46.131,36.605c36.536,22.471,51.25,22.088,51.25,22.088l30.019-47.776-104.827-46.842Z" style="fill:#263238;"></path><ellipse cx="344.958" cy="183.496" rx="31.817" ry="56.841" transform="translate(6.061 377.959) rotate(-57.858)" style="fill:#263238;"></ellipse><path d="M333.53,201.61c-23.143-14.542-35.626-39.827-32.581-54.91,0,0-2.91,4.632-4.119,6.556-9.349,14.879,4.621,40.479,31.202,57.181,26.581,16.701,55.707,18.179,65.056,3.3,1.209-1.924,3.684-5.863,3.684-5.863-12.268,9.288-40.097,8.278-63.241-6.264Z" style="fill:#407BFF;"></path><path d="M309.259,133.473s2.336,68.43,62.984,90.477c0,0,11.789-.021,18.301-7.025l1.754-1.934,17.929-28.534-96.471-60.142-4.497,7.158Z" style="opacity:.2;"></path><polygon points="301.57 89.597 297.755 95.669 339.765 191.686 447.438 189.718 451.253 183.646 301.57 89.597" style="fill:#263238;"></polygon><polygon points="301.57 89.597 297.755 95.669 339.765 191.686 447.438 189.718 451.253 183.646 301.57 89.597" style="opacity:.4;"></polygon><path d="M301.57,89.597c-.327,1.341,42.406,95.775,42.406,95.775l107.276-1.726-45.581-93.592-104.101-.457Z" style="fill:#263238;"></path><path d="M385.95,139.389c-2.023,3.22-7.929,3.151-13.19-.155-5.261-3.306-7.886-8.596-5.863-11.816,2.023-3.22,7.929-3.151,13.19,.155,5.261,3.306,7.886,8.596,5.863,11.817Z" style="opacity:.4;"></path></g><path d="M376.196,134.827c.272,.043,.539,.118,.805,.185,.136,.034,.27,.077,.405,.115-.611-.173,.047,.018,.216,.075,.431,.144,.856,.303,1.278,.472,1.207,.485,2.378,1.058,3.515,1.689,1.55,.86,2.651,1.578,4.224,2.735,10.351,7.612,17.818,18.84,23.614,30.126,5.862,11.414,10.248,23.548,13.831,35.851,.519,1.781,3.206,.729,2.689-1.045-5.556-19.08-13.03-38.489-25.397-54.284-5.479-6.998-12.259-13.77-20.528-17.382-1.324-.579-2.76-1.16-4.198-1.385-1.833-.287-2.292,2.561-.455,2.848h0Z" style="fill:#407BFF;"></path><g><path d="M426.454,218.011c-3.387-.39-5.817-3.451-5.427-6.838,.39-3.387,3.451-5.817,6.838-5.427,3.387,.39,5.817,3.451,5.427,6.838s-3.451,5.817-6.838,5.427Z" style="fill:#407BFF;"></path><path d="M423.815,214.686c-3.57,14.453-2.32,29.949,3.482,43.655,.722,1.706,3.416,.671,2.689-1.045-5.623-13.283-6.782-28.155-3.323-42.155,.445-1.802-2.406-2.247-2.848-.455h0Z" style="fill:#407BFF;"></path><path d="M425.119,212.879c-2.118,15.671,2.935,32.054,13.64,43.718,1.242,1.353,3.591-.325,2.336-1.692-10.207-11.121-15.152-26.594-13.128-41.57,.248-1.837-2.599-2.299-2.848-.455h0Z" style="fill:#407BFF;"></path><path d="M427.135,214.693c4.86,14.615,11.195,31.731,27.136,37.298,1.741,.608,2.948-2.014,1.196-2.626-15.213-5.313-21.015-21.803-25.642-35.717-.586-1.762-3.275-.716-2.689,1.045h0Z" style="fill:#407BFF;"></path><path d="M426.16,214.907c-.012,13.558,5.704,26.801,15.17,36.441,2.682,2.731,5.676,5.134,8.918,7.168,.665,.417,1.485,.45,2.03-.2,.451-.538,.459-1.617-.2-2.03-10.97-6.882-18.985-18.208-21.848-30.848-.807-3.561-1.206-7.199-1.203-10.85,.002-1.851-2.866-1.523-2.867,.319h0Z" style="fill:#407BFF;"></path><path d="M425.824,216.205c-3.978,7.457-3.99,16.355-1.64,24.324,2.371,8.041,7.083,15.173,12.088,21.802,1.119,1.482,3.457-.208,2.336-1.692-4.71-6.238-9.112-12.855-11.493-20.367-2.367-7.467-2.411-15.847,1.336-22.87,.876-1.641-1.756-2.827-2.626-1.196h0Z" style="fill:#407BFF;"></path><path d="M427.217,214.696c5.802,12.534,14.877,23.43,26.22,31.322,1.517,1.055,3.355-1.169,1.83-2.23-10.938-7.61-19.761-18.039-25.362-30.137-.776-1.676-3.472-.646-2.689,1.045h0Z" style="fill:#407BFF;"></path><path d="M426.454,218.011c-3.387-.39-5.817-3.451-5.427-6.838,.39-3.387,3.451-5.817,6.838-5.427,3.387,.39,5.817,3.451,5.427,6.838s-3.451,5.817-6.838,5.427Z" style="opacity:.3;"></path></g><path d="M305.739,92.216l98.404,1.173,17.61,37.975s-103.596-25.595-107.524-29.007-8.489-10.141-8.489-10.141Z" style="fill:#fff; opacity:.1;"></path><path d="M308.314,139.388s-11.269,15.054-11.631,20.099c-.362,5.045-.214,15.11,5.357,19.188,5.571,4.078,12.574-32.408,11.421-39.853s-5.148,.566-5.148,.566Z" style="fill:#fff; opacity:.1;"></path></g></g></svg>
