<svg xmlns="http://www.w3.org/2000/svg" viewBox="0 0 500 500"><g id="freepik--hand-3--inject-48"><path d="M372.64,464.87s-5.86-50.45-5.28-54.57,6.26-28.23,8.64-33.55a122.93,122.93,0,0,0,7.83-26.42c1.47-9.39,1-12,1.32-13.11s.62-20.53-.75-26.43-4.8-16.58-4.8-16.58-.44-10.42-8.87-24.6-8.44-14.55-13.44-18.07-9.94-5.92-14.81-6.46-9.28.77-7.51,7.4,9.11,12.67,9.11,12.67,4.85,9.11,6.86,12.38a60.56,60.56,0,0,1,3.66,7.3l.42,10.05L351.93,301a33.45,33.45,0,0,1-6.77-10.15c-2.1-5.5-10.09-.69-12.71,8s-40.67,34.53-39,47.51,2.63,44.62,8.84,59.27,7.81,17.19,7.81,17.19l-1,47.76" style="fill:#fff"></path><path d="M309.13,471h0a.52.52,0,0,1-.5-.51l1-47.62c-.39-.67-2.28-4.17-7.77-17.12-4.66-11-6.39-31.54-7.65-46.52-.43-5.16-.8-9.61-1.23-12.89-1-8.09,12.28-20.47,24-31.4,7.19-6.68,14-13,15-16.31,1.94-6.45,6.68-10.57,9.95-10.69a3.74,3.74,0,0,1,3.71,2.66,32.58,32.58,0,0,0,6.17,9.48l2.72-5.35-.42-9.83a60.09,60.09,0,0,0-3.59-7.15c-1.88-3.07-6.33-11.38-6.83-12.32-.84-.71-7.48-6.44-9.2-12.86-.73-2.74-.49-4.84.71-6.23,1.34-1.56,3.88-2.18,7.35-1.8,4.59.51,9.51,2.65,15,6.55,4.76,3.35,5.17,4,12,15.6l1.56,2.63c8,13.52,8.88,23.81,8.94,24.76.28.88,3.49,10.92,4.79,16.55,1.4,6,1.11,25.4.74,26.69a8.06,8.06,0,0,0-.14,1.7,86.41,86.41,0,0,1-1.16,11.34A123.76,123.76,0,0,1,376.46,377c-2.32,5.16-8,29.32-8.61,33.41s5.23,53.94,5.29,54.45a.5.5,0,1,1-1,.11c-.24-2.06-5.86-50.56-5.29-54.7s6.27-28.29,8.69-33.68a123.37,123.37,0,0,0,7.79-26.3A85.93,85.93,0,0,0,384.49,339a8.3,8.3,0,0,1,.18-1.93c.28-1,.58-20.42-.76-26.19s-4.75-16.43-4.78-16.53a.35.35,0,0,1,0-.13c0-.11-.54-10.48-8.8-24.37l-1.56-2.63c-6.89-11.62-7.15-12.07-11.73-15.29-5.39-3.8-10.16-5.88-14.58-6.37-2.18-.24-5.07-.19-6.48,1.45-1,1.13-1.14,2.92-.5,5.32,1.71,6.4,8.87,12.35,8.94,12.41a.47.47,0,0,1,.13.15c0,.09,4.87,9.14,6.84,12.36a60.79,60.79,0,0,1,3.7,7.37.47.47,0,0,1,0,.17l.42,10.05a.45.45,0,0,1,0,.25l-3.1,6.09a.52.52,0,0,1-.36.27.55.55,0,0,1-.44-.14A33.69,33.69,0,0,1,344.69,291a2.67,2.67,0,0,0-2.74-2c-2.92.11-7.21,3.95-9,10-1.08,3.57-7.65,9.68-15.26,16.76-11,10.22-24.7,22.95-23.72,30.53.42,3.31.79,7.77,1.23,12.93,1.25,14.92,3,35.36,7.57,46.21,6.09,14.37,7.76,17.1,7.77,17.13a.5.5,0,0,1,.08.27l-1,47.76A.49.49,0,0,1,309.13,471Z" style="fill:#263238"></path><path d="M294.75,351.88s3.3,12.4,9.8,16.4S318.8,370,318.8,370l7.26,4.5,28.25-37.76s6-18.25,5.5-24.75-1-10.5-2-11.25-8.25-3.76-8.25-3.76l-2.75-3.25-3.44-6.42A57,57,0,0,1,330.31,309c-9.51,9.5-28.26,23.5-32,31.25S293.5,346.38,294.75,351.88Z" style="fill:#263238"></path><path d="M326.05,375a.48.48,0,0,1-.26-.07l-7.07-4.39c-1.34.35-8.35,1.88-14.43-1.86-6.6-4.06-9.89-16.19-10-16.7v0c-.88-3.88-.65-4.42.89-7a54.16,54.16,0,0,0,2.7-4.94c2.51-5.19,11.43-13,20.07-20.49,4.52-3.94,8.79-7.66,12-10.91a57,57,0,0,0,12.94-21.46.52.52,0,0,1,.43-.36.5.5,0,0,1,.49.26l3.42,6.38,2.63,3.12a87.94,87.94,0,0,1,8.25,3.77c1.05.78,1.59,3.6,2.2,11.61.5,6.53-5.28,24.2-5.52,24.95a.64.64,0,0,1-.08.14l-28.25,37.76A.51.51,0,0,1,326.05,375Zm-7.25-5.5a.5.5,0,0,1,.27.08l6.86,4.26,27.93-37.33c.43-1.3,5.93-18.37,5.46-24.48-.26-3.29-.78-10.13-1.81-10.89a83.57,83.57,0,0,0-8.14-3.69.52.52,0,0,1-.19-.14l-2.75-3.25-.06-.09-2.89-5.4a58,58,0,0,1-12.82,20.77c-3.27,3.27-7.55,7-12.09,10.95-8.55,7.46-17.4,15.17-19.82,20.17-1.17,2.42-2.08,3.93-2.74,5-1.44,2.39-1.59,2.65-.78,6.24.11.38,3.4,12.29,9.58,16.1s13.78,1.71,13.86,1.69Z" style="fill:#263238"></path><path d="M349.86,265.88a10.87,10.87,0,0,1-4.43-.88.5.5,0,0,1,.44-.9c.22.11,5.49,2.57,11.44-1.85a.51.51,0,0,1,.7.11.5.5,0,0,1-.1.7A13.38,13.38,0,0,1,349.86,265.88Z" style="fill:#263238"></path><path d="M345.31,329.09,335,341.49a.9.9,0,0,1-1.58-.67l1.52-16,54.47-131.64a1.86,1.86,0,0,1,2.42-1l6.92,2.87a1.84,1.84,0,0,1,1,2.42Z" style="fill:#164FC6"></path><path d="M334.35,342.32a1.43,1.43,0,0,1-1.4-1.55l1.52-16a.74.74,0,0,1,0-.14L389,193a2.36,2.36,0,0,1,3.07-1.28l6.92,2.86a2.37,2.37,0,0,1,1.28,3.08L345.77,329.28a.33.33,0,0,1-.07.13l-10.29,12.4A1.37,1.37,0,0,1,334.35,342.32Zm1.11-17.39L334,340.87a.38.38,0,0,0,.24.41.37.37,0,0,0,.45-.11l10.24-12.34,54.44-131.58a1.34,1.34,0,0,0-.73-1.76l-6.92-2.86a1.34,1.34,0,0,0-1.76.73Zm9.85,4.16h0Z" style="fill:#263238"></path><path d="M393.53,212.56l6.25-15.11a1.84,1.84,0,0,0-1-2.42l-6.92-2.87a1.86,1.86,0,0,0-2.42,1l-6.25,15.11Z" style="fill:#d4d4d4"></path><path d="M393.53,213.06a.58.58,0,0,1-.19,0L383,208.75a.5.5,0,0,1-.27-.66L389,193a2.34,2.34,0,0,1,3.07-1.28l6.92,2.86a2.37,2.37,0,0,1,1.28,3.08L394,212.75a.53.53,0,0,1-.27.28A.63.63,0,0,1,393.53,213.06ZM383.84,208l9.42,3.9,6.06-14.66a1.34,1.34,0,0,0-.73-1.76l-6.92-2.86a1.32,1.32,0,0,0-1,0,1.25,1.25,0,0,0-.73.73Z" style="fill:#263238"></path><rect x="386.12" y="201.49" width="7.23" height="11.19" transform="translate(49.38 488.03) rotate(-67.52)" style="fill:#fff"></rect><path d="M393.53,213.06a.58.58,0,0,1-.19,0L383,208.75a.51.51,0,0,1-.27-.27.53.53,0,0,1,0-.39l2.76-6.68a.51.51,0,0,1,.66-.27l10.34,4.28a.51.51,0,0,1,.27.27.5.5,0,0,1,0,.38L394,212.75A.49.49,0,0,1,393.53,213.06ZM383.84,208l9.42,3.9,2.38-5.76-9.42-3.9Z" style="fill:#263238"></path><path d="M335,324.85l-1.52,16a.9.9,0,0,0,1.58.67l10.26-12.37Z" style="fill:#fff"></path><path d="M334.35,342.32a1.43,1.43,0,0,1-1.4-1.55l1.52-16a.49.49,0,0,1,.24-.38.51.51,0,0,1,.45,0l10.32,4.27a.5.5,0,0,1,.3.35.51.51,0,0,1-.11.44l-10.26,12.37A1.37,1.37,0,0,1,334.35,342.32Zm1-16.75L334,340.87a.38.38,0,0,0,.24.41.37.37,0,0,0,.45-.11l9.83-11.85Z" style="fill:#263238"></path><path d="M334.12,333.78l-.67,7a.9.9,0,0,0,1.58.67l4.52-5.46Z" style="fill:#263238"></path><path d="M334.35,342.32a1.43,1.43,0,0,1-1.4-1.55l.67-7a.56.56,0,0,1,.24-.39.51.51,0,0,1,.45,0l5.44,2.25a.52.52,0,0,1,.29.34.49.49,0,0,1-.1.44l-4.53,5.46A1.37,1.37,0,0,1,334.35,342.32Zm.2-7.82-.6,6.37a.38.38,0,0,0,.24.41.37.37,0,0,0,.45-.11l4.1-4.94Z" style="fill:#263238"></path><path d="M320.29,360.34a6.8,6.8,0,0,1-.8,3,8.89,8.89,0,0,1-7.23,4.24c-3.7.16-9.64-3.3-13.77-8s-5.35-11.58-7.18-16.37-2-9.4,1.43-15.57,10.95-3.94,10.95-3.94,5.37,17.61,7.65,22.14S320.29,360.34,320.29,360.34Z" style="fill:#fff"></path><path d="M312,368.13c-3.84,0-9.76-3.46-13.91-8.16-3.13-3.56-4.61-8.3-5.92-12.48-.45-1.45-.88-2.82-1.34-4.05-2.13-5.58-1.69-10.36,1.45-16,3.6-6.44,11.45-4.19,11.53-4.17a.52.52,0,0,1,.34.34c.05.17,5.39,17.61,7.62,22.06s8.84,14.29,8.91,14.39a.54.54,0,0,1,.09.25,7.22,7.22,0,0,1-.86,3.3,9.38,9.38,0,0,1-7.65,4.51Zm-11.47-44.29a8,8,0,0,0-7.37,4.09c-3,5.42-3.44,9.81-1.4,15.16.48,1.25.91,2.64,1.37,4.1,1.28,4.09,2.72,8.72,5.71,12.11,4,4.51,9.57,7.83,13.14,7.83h.24a8.42,8.42,0,0,0,6.8-4,6.61,6.61,0,0,0,.75-2.66c-.83-1.23-6.75-10.09-8.9-14.37s-6.89-19.65-7.6-21.95A11.33,11.33,0,0,0,300.55,323.84Z" style="fill:#263238"></path><path d="M308.72,366.65a.51.51,0,0,1-.42-.23c-2.12-3.28-1.71-3.9-1.58-4.11a.74.74,0,0,1,.77-.3c1,.16,4.57-.19,6-1.33,1.65-1.29,1.92-1.42,3.36-.36a29.15,29.15,0,0,1,3,2.71.5.5,0,0,1,0,.71.49.49,0,0,1-.7,0,28.8,28.8,0,0,0-2.83-2.59c-.89-.66-.89-.66-2.16.34-1.6,1.24-5,1.65-6.5,1.56a15.18,15.18,0,0,0,1.5,2.85.5.5,0,0,1-.15.69A.53.53,0,0,1,308.72,366.65Z" style="fill:#263238"></path><path d="M301.42,356.46a.48.48,0,0,1-.41-.23.49.49,0,0,1,.06-.62l3.13-3.15a.5.5,0,0,1,.71.71l-1.37,1.37a40.47,40.47,0,0,0,4.26-2,.5.5,0,0,1,.69.15.49.49,0,0,1-.16.69,61.87,61.87,0,0,1-6.72,3.08A.41.41,0,0,1,301.42,356.46Z" style="fill:#263238"></path><path d="M318.56,303s-6.18-3.68-11.7,2.58-4.82,12-1.83,22.54,6.39,19.64,8.58,22.33S320.1,361.5,325,361.3c0,0,8.22-2.67,9.64-7.36s-1.19-6.43-1.19-6.43l-3.51-6.34-1.37-5s-4.63-10.92-6-16.65S318.56,303,318.56,303Z" style="fill:#fff"></path><path d="M324.78,361.8c-4,0-7.39-5-9.87-8.69-.66-1-1.22-1.8-1.68-2.37-2.16-2.63-5.48-11.26-8.68-22.51s-3.59-16.76,1.93-23c5.73-6.49,12.27-2.72,12.33-2.68a.48.48,0,0,1,.23.31c0,.11,2.56,10.84,3.94,16.51s6,16.46,6,16.57l1.37,5,3.43,6.19c.53.41,2.66,2.42,1.29,6.92-1.48,4.88-9.62,7.57-10,7.68a.61.61,0,0,1-.13,0Zm-10.54-59.41a9.16,9.16,0,0,0-7,3.5c-5.21,5.89-4.77,11.33-1.72,22.07,3.12,11,6.45,19.65,8.49,22.15.49.6,1.07,1.45,1.74,2.44,2.24,3.32,5.64,8.29,9.13,8.25.76-.26,8-2.83,9.26-7s-.91-5.8-1-5.87a.44.44,0,0,1-.16-.17l-3.51-6.34a.37.37,0,0,1,0-.11l-1.37-5s-4.64-11-6-16.67c-1.27-5.22-3.52-14.73-3.89-16.29A8.73,8.73,0,0,0,314.24,302.39Z" style="fill:#263238"></path><path d="M318.3,346.21a.5.5,0,0,1-.49-.39.51.51,0,0,1,.39-.6,31.64,31.64,0,0,0,5.27-2.43.5.5,0,0,1,.68.2.51.51,0,0,1-.19.68,34.32,34.32,0,0,1-5.56,2.53Z" style="fill:#263238"></path><path d="M315.49,345.08a.59.59,0,0,1-.26-.07.52.52,0,0,1-.17-.69c1-1.68,4.8-2.59,5.23-2.69a.48.48,0,0,1,.6.37.5.5,0,0,1-.37.6c-1,.24-3.92,1.12-4.6,2.24A.51.51,0,0,1,315.49,345.08Z" style="fill:#263238"></path><path d="M324.92,359.28a2.74,2.74,0,0,1-1.78-.56,2.35,2.35,0,0,1-.73-2c.14-2.91,6.35-3.48,7-3.53a.48.48,0,0,1,.54.45.5.5,0,0,1-.46.54c-1.56.12-6,.86-6.13,2.59a1.41,1.41,0,0,0,.38,1.18,2.24,2.24,0,0,0,1.65.27.5.5,0,0,1,.59.39.49.49,0,0,1-.38.59A3.41,3.41,0,0,1,324.92,359.28Z" style="fill:#263238"></path><path d="M343.38,298.46a21.57,21.57,0,0,0,0-11.12c-1.64-5.95-5-8.82-8.93-8.65s-10.19,0-12.89,7.49-2.8,15.86-3,22.36,1.23,12.68,2.72,14.93,10.18,16.25,11.17,17.83,4.48,1.89,8.34.11,6.24-5.83,6.11-8.83S342,315,342,315a23,23,0,0,0,1.15-5.61A84.86,84.86,0,0,0,343.38,298.46Z" style="fill:#fff"></path><path d="M335.8,343.12c-1.74,0-3.12-.52-3.77-1.56-.24-.37-.91-1.44-1.81-2.89-2.88-4.62-8.23-13.21-9.36-14.92-1.53-2.32-3-8.65-2.8-15.23l0-.95c.18-6.38.4-14.32,3-21.56,2.66-7.44,8.69-7.65,12.68-7.8l.66,0c4.35-.19,7.8,3.1,9.43,9a22,22,0,0,1,0,11.31,83.73,83.73,0,0,1-.24,10.89,26.85,26.85,0,0,1-1.12,5.56c.56,1.73,4.76,14.69,4.88,17.59.13,3.06-2.23,7.37-6.4,9.3A12.64,12.64,0,0,1,335.8,343.12Zm-1.05-63.94h-.29l-.66,0c-3.94.14-9.34.34-11.78,7.14-2.53,7.08-2.75,14.94-2.93,21.25l0,.95c-.18,6.39,1.19,12.46,2.63,14.65,1.14,1.72,6.5,10.32,9.38,14.94l1.8,2.89c.82,1.3,4,1.64,7.71-.08s5.94-5.62,5.82-8.35c-.12-2.9-4.84-17.34-4.89-17.49a.56.56,0,0,1,0-.36,22.57,22.57,0,0,0,1.12-5.46,86.8,86.8,0,0,0,.23-10.81.32.32,0,0,1,0-.17,21.18,21.18,0,0,0,0-10.84C341.43,282.18,338.48,279.18,334.75,279.18Z" style="fill:#263238"></path><path d="M343.86,337.84a.51.51,0,0,1-.44-.26c-1.54-2.77-6.26-9.62-9.64-7.93-4.1,2.06-3.21,5.67-3.17,5.83a.5.5,0,1,1-1,.25,6.22,6.22,0,0,1,3.7-7c4.91-2.46,10.71,7.9,11,8.34a.51.51,0,0,1-.2.68A.5.5,0,0,1,343.86,337.84Z" style="fill:#263238"></path><path d="M323.57,318.09a.59.59,0,0,1-.25-.07.51.51,0,0,1-.18-.69,9.76,9.76,0,0,1,5.08-3.83.5.5,0,0,1,.36.94,8.71,8.71,0,0,0-4.57,3.4A.51.51,0,0,1,323.57,318.09Z" style="fill:#263238"></path><path d="M331,313.67a.5.5,0,0,1-.12-1,17.9,17.9,0,0,1,2.19-.4.5.5,0,0,1,.1,1,19.5,19.5,0,0,0-2,.38Z" style="fill:#263238"></path><path d="M326.59,318.19a.5.5,0,0,1-.16-1,31.6,31.6,0,0,0,5.56-2.5.5.5,0,0,1,.56.83,30.51,30.51,0,0,1-5.8,2.61A.45.45,0,0,1,326.59,318.19Z" style="fill:#263238"></path><path d="M320.24,392.06s2.16-20,7.82-34.14,13.49-20.48,16.17-22.91a66.76,66.76,0,0,0,5.75-6.27l4.5-8.75s.54-14.62.35-19,.81-13.69,6.83-24.6,10.39-11.79,13.13-12.83,8.6.8,10.31,3-6,18.08-5.72,23.4-1.39,16.5-1.9,26.48.13,15-1.59,30.49-3.52,28.89-3.52,28.89" style="fill:#fff"></path><path d="M320.24,392.56h-.06a.5.5,0,0,1-.44-.55c0-.2,2.24-20.24,7.85-34.27,5.33-13.33,12.61-19.81,15.72-22.58l.58-.52a66.4,66.4,0,0,0,5.67-6.17l4.42-8.61c0-1.36.53-14.74.35-18.86-.11-2.69.05-12.46,6.9-24.86,5.67-10.27,9.93-11.81,12.75-12.83l.63-.23c2.87-1.09,9,.7,10.89,3.21,1,1.32-.28,5.31-2.47,11.73-1.6,4.68-3.26,9.51-3.15,12a122.78,122.78,0,0,1-.85,13.38c-.39,4.12-.83,8.8-1,13.14-.16,3.25-.21,6-.25,8.7A201.4,201.4,0,0,1,376.39,347c-1.7,15.31-3.51,28.78-3.53,28.91a.5.5,0,0,1-.56.43.51.51,0,0,1-.43-.56c0-.14,1.83-13.59,3.52-28.89a199.48,199.48,0,0,0,1.34-21.73c0-2.69.09-5.47.26-8.73.22-4.36.66-9.05,1.05-13.18a123.27,123.27,0,0,0,.84-13.25c-.11-2.62,1.57-7.55,3.2-12.32,1.5-4.38,3.36-9.83,2.63-10.8-1.64-2.14-7.29-3.8-9.75-2.87l-.64.23c-2.68,1-6.73,2.43-12.22,12.37-6.72,12.18-6.88,21.71-6.77,24.34.18,4.36-.35,18.9-.35,19a.65.65,0,0,1-.06.21L350.43,329l-.06.09a65.61,65.61,0,0,1-5.81,6.32l-.59.53c-3.05,2.72-10.2,9.09-15.45,22.2-5.56,13.91-7.76,33.81-7.79,34A.49.49,0,0,1,320.24,392.56Z" style="fill:#263238"></path><path d="M378.05,283.36c-1.94,0-4.91-1-6.23-2.84-1.87-2.56,2.38-12.64,3.69-14.3,1.56-2,6.6-1.54,7.16-1.48a.5.5,0,0,1,.45.55.49.49,0,0,1-.54.45c-1.4-.14-5.25-.22-6.28,1.1-1.43,1.81-5,11.22-3.67,13.09,1.47,2,5.29,2.74,6.26,2.31a.5.5,0,0,1,.66.25.49.49,0,0,1-.25.66A3.16,3.16,0,0,1,378.05,283.36Z" style="fill:#263238"></path><path d="M371.23,298.83a.5.5,0,0,1-.22-.95c1.84-.88,6.11-.33,6.3-.3a.5.5,0,0,1,.42.56.5.5,0,0,1-.56.43c-1.15-.15-4.42-.41-5.72.21A.59.59,0,0,1,371.23,298.83Z" style="fill:#263238"></path><path d="M373.83,301.41a13.13,13.13,0,0,1-5-1,.5.5,0,1,1,.4-.91,11.76,11.76,0,0,0,6.73.68.5.5,0,1,1,.25,1A9.52,9.52,0,0,1,373.83,301.41Z" style="fill:#263238"></path><path d="M372.07,307.7c-3.58,0-4.7-2.12-4.76-2.23a.51.51,0,0,1,.22-.67.5.5,0,0,1,.67.22c.06.1,1.31,2.35,5.81,1.48a.48.48,0,0,1,.58.39.5.5,0,0,1-.39.59A11.49,11.49,0,0,1,372.07,307.7Z" style="fill:#263238"></path></g></svg>